<svg _ngcontent-gqt-c109="" xmlns="http://www.w3.org/2000/svg" viewBox="21 6 1699 1373"><g _ngcontent-gqt-c109=""><g _ngcontent-gqc-c268=""><g _ngcontent-gqc-c268=""><rect _ngcontent-gqc-c268="" width="150" height="42px" stroke="black" stroke-width="1" fill="white" y="61" x="745" style="width: 150px; transform: translate(42px, -54px);" data-x="42" data-y="-54" class=""></rect><rect _ngcontent-gqc-c268="" width="150" height="25px" stroke="black" stroke-width="1" fill="white" y="103" x="745" style="width: 150px; transform: translate(42px, -54px);" data-x="42" data-y="-54" class=""></rect><rect _ngcontent-gqc-c268="" width="150" height="20" stroke="black" stroke-width="1" fill="white" y="128" x="745" style="width: 150px; transform: translate(42px, -54px);" data-x="42" data-y="-54" class=""></rect></g><g _ngcontent-gqc-c268=""><text _ngcontent-oli-c268="" x="791" y="23">Interface</text><text _ngcontent-oli-c268="" x="791" y="38">OnInit</text></g><g _ngcontent-gqc-c268=""><text _ngcontent-gqc-c268="" x="749" y="118" style="transform: translate(42px, -53px);">ngOnInit() : void</text></g><g _ngcontent-gqc-c268=""><text _ngcontent-gqc-c268="" x="749" y="143" style="transform: translate(42px, -53px);">-</text></g></g><g _ngcontent-oli-c268=""><g _ngcontent-oli-c268=""><rect _ngcontent-oli-c268="" width="150" height="46px" stroke="black" stroke-width="1" fill="white" y="138" x="1276" style="width: 157px; transform: translate(-718px, -132px);" data-x="-718" data-y="-132" class=""></rect><rect _ngcontent-oli-c268="" width="150" height="24px" stroke="black" stroke-width="1" fill="white" y="184" x="1276" style="width: 157px; transform: translate(-718px, -132px);" data-x="-718" data-y="-132" class=""></rect><rect _ngcontent-oli-c268="" width="150" height="20" stroke="black" stroke-width="1" fill="white" y="208" x="1276" style="width: 157px; transform: translate(-718px, -132px);" data-x="-718" data-y="-132" class=""></rect></g><g _ngcontent-oli-c268=""><text _ngcontent-oli-c268="" x="563" y="21">Interface</text><text _ngcontent-oli-c268="" x="563" y="36">AfterViewInit</text></g><g _ngcontent-oli-c268=""><text _ngcontent-oli-c268="" x="1280" y="199" style="transform: translate(-717px, -132px);">ngAfterViewInit() : void</text></g><g _ngcontent-oli-c268=""><text _ngcontent-oli-c268="" x="1280" y="223" style="transform: translate(-717px, -132px);">-</text></g></g><g _ngcontent-oli-c268=""><g _ngcontent-oli-c268=""><rect _ngcontent-oli-c268="" width="150" height="46px" stroke="black" stroke-width="1" fill="white" y="251" x="842" style="width: 181px; transform: translate(-524px, -240px);" data-x="-524" data-y="-240" class=""></rect><rect _ngcontent-oli-c268="" width="150" height="20" stroke="black" stroke-width="1" fill="white" y="297" x="842" style="width: 181px; transform: translate(-524px, -240px);" data-x="-524" data-y="-240" class=""></rect><rect _ngcontent-oli-c268="" width="150" height="20" stroke="black" stroke-width="1" fill="white" y="317" x="842" style="width: 181px; transform: translate(-524px, -240px);" data-x="-524" data-y="-240" class=""></rect></g><g _ngcontent-oli-c268=""><text _ngcontent-oli-c268="" x="323" y="26">Interface</text><text _ngcontent-oli-c268="" x="323" y="41">AfterContentInit</text></g><g _ngcontent-oli-c268=""><text _ngcontent-oli-c268="" x="846" y="312" style="transform: translate(-523px, -240px);">ngAfterContentInit() : void</text></g><g _ngcontent-oli-c268=""><text _ngcontent-oli-c268="" x="846" y="332" style="transform: translate(-523px, -240px);">-</text></g></g><g _ngcontent-oli-c268=""><g _ngcontent-oli-c268=""><rect _ngcontent-oli-c268="" width="150" height="42.630462646484375px" stroke="black" stroke-width="1" fill="white" y="332" x="614" style="width: 251.63px; transform: translate(-586px, -91px);" data-x="-586" data-y="-91" class=""></rect><rect _ngcontent-oli-c268="" width="150" height="47.000030517578125px" stroke="black" stroke-width="1" fill="white" y="374.6304626464844" x="614" style="width: 251.63px; transform: translate(-586px, -91px);" data-x="-586" data-y="-91" class=""></rect><rect _ngcontent-oli-c268="" width="150" height="102px" stroke="black" stroke-width="1" fill="white" y="421.6304931640625" x="614" style="width: 251.63px; transform: translate(-586px, -91px);" data-x="-586" data-y="-91" class=""></rect></g><g _ngcontent-oli-c268=""><text _ngcontent-oli-c268="" x="32" y="255">Class</text><text _ngcontent-oli-c268="" x="32" y="270">MainNavComponent</text></g><g _ngcontent-oli-c268=""><text _ngcontent-ync-c268="" x="618" y="389.6304626464844" style="transform: translate(-586px, -92px);">+ngAfterViewInit(): void</text><text _ngcontent-ync-c268="" x="618" y="404.6304626464844" style="transform: translate(-586px, -92px);">+ngAfterContentInit(): void</text></g><g _ngcontent-oli-c268=""><text _ngcontent-oli-c268="" x="618" y="436.6304931640625" style="transform: translate(-586px, -92px);">+showSubscription: Subscription</text><text _ngcontent-oli-c268="" x="618" y="451.6304931640625" style="transform: translate(-586px, -92px);">+showSaveSubscription: Subscription</text><text _ngcontent-oli-c268="" x="618" y="466.6304931640625" style="transform: translate(-586px, -92px);">+showLoadSubscription: Subscription</text><text _ngcontent-oli-c268="" x="618" y="481.6304931640625" style="transform: translate(-586px, -92px);">+show: boolean</text><text _ngcontent-oli-c268="" x="618" y="496.6304931640625" style="transform: translate(-586px, -92px);">+showSaveAlert: boolean</text><text _ngcontent-oli-c268="" x="618" y="511.6304931640625" style="transform: translate(-586px, -92px);">+showLoadAlert: boolean</text></g></g><g _ngcontent-ync-c268=""><g _ngcontent-ync-c268=""><rect _ngcontent-ync-c268="" width="150" height="48px" stroke="black" stroke-width="1" fill="white" y="289" x="845" style="width: 216px; transform: translate(-344px, -49px);" data-x="-344" data-y="-49" class=""></rect><rect _ngcontent-ync-c268="" width="150" height="26px" stroke="black" stroke-width="1" fill="white" y="337" x="845" style="width: 216px; transform: translate(-344px, -49px);" data-x="-344" data-y="-49" class=""></rect><rect _ngcontent-ync-c268="" width="150" height="45px" stroke="black" stroke-width="1" fill="white" y="363" x="845" style="width: 216px; transform: translate(-344px, -49px);" data-x="-344" data-y="-49" class=""></rect></g><g _ngcontent-ync-c268=""><text _ngcontent-ync-c268="" x="505" y="256">Class</text><text _ngcontent-ync-c268="" x="505" y="271">MainBoardComponent</text></g><g _ngcontent-ync-c268=""><text _ngcontent-ync-c268="" x="849" y="352" style="transform: translate(-344px, -48px);">+ngOnInit(): void</text></g><g _ngcontent-ync-c268=""><text _ngcontent-ync-c268="" x="849" y="378" style="transform: translate(-344px, -48px);">+typeSubscription: Subscription</text><text _ngcontent-ync-c268="" x="849" y="393" style="transform: translate(-344px, -48px);">+type: string</text></g></g><g _ngcontent-ync-c268=""><g _ngcontent-ync-c268=""><rect _ngcontent-ync-c268="" width="150" height="43px" stroke="black" stroke-width="1" fill="white" y="217" x="1360" style="width: 162px; transform: translate(-358px, -211px);" data-x="-358" data-y="-211" class=""></rect><rect _ngcontent-ync-c268="" width="150" height="20" stroke="black" stroke-width="1" fill="white" y="260" x="1360" style="width: 162px; transform: translate(-358px, -211px);" data-x="-358" data-y="-211" class=""></rect><rect _ngcontent-ync-c268="" width="150" height="20" stroke="black" stroke-width="1" fill="white" y="280" x="1360" style="width: 162px; transform: translate(-358px, -211px);" data-x="-358" data-y="-211" class=""></rect></g><g _ngcontent-ync-c268=""><text _ngcontent-ync-c268="" x="1006" y="22">Interface</text><text _ngcontent-ync-c268="" x="1006" y="37">OnDestroy</text></g><g _ngcontent-ync-c268=""><text _ngcontent-ync-c268="" x="1364" y="275" style="transform: translate(-358px, -210px);">ngOnDestroy() : void</text></g><g _ngcontent-ync-c268=""><text _ngcontent-ync-c268="" x="1364" y="295" style="transform: translate(-358px, -210px);">-</text></g></g><g _ngcontent-ync-c268=""><g _ngcontent-ync-c268=""><rect _ngcontent-ync-c268="" width="150" height="43px" stroke="black" stroke-width="1" fill="white" y="531" x="563" style="width: 209.972px; transform: translate(188px, 716px);" data-x="188" data-y="716" class=""></rect><rect _ngcontent-ync-c268="" width="150" height="22px" stroke="black" stroke-width="1" fill="white" y="574" x="563" style="width: 209.972px; transform: translate(188px, 716px);" data-x="188" data-y="716" class=""></rect><rect _ngcontent-ync-c268="" width="150" height="25.3304443359375px" stroke="black" stroke-width="1" fill="white" y="596" x="563" style="width: 209.972px; transform: translate(188px, 716px);" data-x="188" data-y="716" class=""></rect></g><g _ngcontent-ync-c268=""><text _ngcontent-ync-c268="" x="756" y="1263">Class</text><text _ngcontent-ync-c268="" x="756" y="1278">UmlComponentItemComponent</text></g><g _ngcontent-ync-c268=""><text _ngcontent-ync-c268="" x="567" y="589" style="transform: translate(189px, 717px);">-</text></g><g _ngcontent-ync-c268=""><text _ngcontent-ync-c268="" x="567" y="611" style="transform: translate(189px, 717px);">+umlItem: UmlComponent</text></g></g><g _ngcontent-ync-c268=""><g _ngcontent-ync-c268=""><rect _ngcontent-ync-c268="" width="150" height="48px" stroke="black" stroke-width="1" fill="white" y="245" x="1389" style="width: 382px; transform: translate(-622px, -5px);" data-x="-622" data-y="-5" class=""></rect><rect _ngcontent-ync-c268="" width="150" height="130px" stroke="black" stroke-width="1" fill="white" y="293" x="1389" style="width: 382px; transform: translate(-622px, -5px);" data-x="-622" data-y="-5" class=""></rect><rect _ngcontent-ync-c268="" width="150" height="230px" stroke="black" stroke-width="1" fill="white" y="423" x="1389" style="width: 382px; transform: translate(-622px, -5px);" data-x="-622" data-y="-5" class=""></rect></g><g _ngcontent-ync-c268=""><text _ngcontent-ync-c268="" x="771" y="254">Class</text><text _ngcontent-ync-c268="" x="771" y="269">UmlBoardComponent</text></g><g _ngcontent-ync-c268=""><text _ngcontent-ync-c268="" x="1393" y="308" style="transform: translate(-622px, -6px);">+ngOnInit(): void</text><text _ngcontent-ync-c268="" x="1393" y="323" style="transform: translate(-622px, -6px);">+ngAfterViewInit(): void</text><text _ngcontent-ync-c268="" x="1393" y="338" style="transform: translate(-622px, -6px);">+onClick(): void</text><text _ngcontent-ync-c268="" x="1393" y="353" style="transform: translate(-622px, -6px);">+elementRemover(element: HTMLElement, remover): void</text><text _ngcontent-ync-c268="" x="1393" y="368" style="transform: translate(-622px, -6px);">+assignTask($event): void</text><text _ngcontent-ync-c268="" x="1393" y="383" style="transform: translate(-622px, -6px);">+onTextEdit(element: ElementRef): void</text><text _ngcontent-ync-c268="" x="1393" y="398" style="transform: translate(-622px, -6px);">+onMouseMove($event: MouseEvent): void</text><text _ngcontent-ync-c268="" x="1393" y="413" style="transform: translate(-622px, -6px);">+ngOnDestroy(): void</text></g><g _ngcontent-ync-c268=""><text _ngcontent-ync-c268="" x="1393" y="438" style="transform: translate(-622px, -6px);">+umlDiagram: ElementRef</text><text _ngcontent-ync-c268="" x="1393" y="453" style="transform: translate(-622px, -6px);">+dropZone: ElementRef</text><text _ngcontent-ync-c268="" x="1393" y="468" style="transform: translate(-622px, -6px);">+droppableDirective: DroppableDirective</text><text _ngcontent-ync-c268="" x="1393" y="483" style="transform: translate(-622px, -6px);">-draw: boolean</text><text _ngcontent-ync-c268="" x="1393" y="498" style="transform: translate(-622px, -6px);">-lastSVGGElem: ElementRef</text><text _ngcontent-ync-c268="" x="1393" y="513" style="transform: translate(-622px, -6px);">-drawElement: string</text><text _ngcontent-ync-c268="" x="1393" y="528" style="transform: translate(-622px, -6px);">+umlDiagramComponentsList: UmlComponent[ ]</text><text _ngcontent-ync-c268="" x="1393" y="543" style="transform: translate(-622px, -6px);">-itemSubscription: Subscription</text><text _ngcontent-ync-c268="" x="1393" y="558" style="transform: translate(-622px, -6px);">-toolbarSubscription: Subscription</text><text _ngcontent-ync-c268="" x="1393" y="573" style="transform: translate(-622px, -6px);">-diagramTypeSubscription: Subscription</text><text _ngcontent-ync-c268="" x="1393" y="588" style="transform: translate(-622px, -6px);">-umlComponentListSubscription: Subscription</text><text _ngcontent-ync-c268="" x="1393" y="603" style="transform: translate(-622px, -6px);">-umlComponentListElement: HTMLElement</text><text _ngcontent-ync-c268="" x="1393" y="618" style="transform: translate(-622px, -6px);">-toolbarElement: HTMLElement</text><text _ngcontent-ync-c268="" x="1393" y="633" style="transform: translate(-622px, -6px);">-diagramType: string</text></g></g><g _ngcontent-fpb-c268=""><g _ngcontent-fpb-c268=""><rect _ngcontent-fpb-c268="" width="150" height="36px" stroke="black" stroke-width="1" fill="white" y="498" x="292" style="width: 150px; transform: translate(1014px, 750px);" data-x="1014" data-y="750" class=""></rect><rect _ngcontent-fpb-c268="" width="150" height="20" stroke="black" stroke-width="1" fill="white" y="534" x="292" style="width: 150px; transform: translate(1014px, 750px);" data-x="1014" data-y="750" class=""></rect><rect _ngcontent-fpb-c268="" width="150" height="20" stroke="black" stroke-width="1" fill="white" y="554" x="292" style="width: 150px; transform: translate(1014px, 750px);" data-x="1014" data-y="750" class=""></rect></g><g _ngcontent-fpb-c268=""><text _ngcontent-fpb-c268="" x="1309" y="1263">Class</text><text _ngcontent-fpb-c268="" x="1309" y="1278">HomeComponent</text></g><g _ngcontent-fpb-c268=""><text _ngcontent-fpb-c268="" x="296" y="549" style="transform: translate(1013px, 750px);">-</text></g><g _ngcontent-fpb-c268=""><text _ngcontent-fpb-c268="" x="296" y="569" style="transform: translate(1013px, 750px);">-</text></g></g><g _ngcontent-fpb-c268=""><g _ngcontent-fpb-c268=""><rect _ngcontent-fpb-c268="" width="150" height="38.967892576961276px" stroke="black" stroke-width="1" fill="white" y="655" x="340" style="width: 150px; transform: translate(724px, 592px);" data-x="724" data-y="592" class=""></rect><rect _ngcontent-fpb-c268="" width="150" height="23px" stroke="black" stroke-width="1" fill="white" y="693.9678925769613" x="340" style="width: 150px; transform: translate(724px, 592px);" data-x="724" data-y="592" class=""></rect><rect _ngcontent-fpb-c268="" width="150" height="20" stroke="black" stroke-width="1" fill="white" y="716.9678925769613" x="340" style="width: 150px; transform: translate(724px, 592px);" data-x="724" data-y="592" class=""></rect></g><g _ngcontent-fpb-c268=""><text _ngcontent-fpb-c268="" x="1067" y="1262">Class</text><text _ngcontent-fpb-c268="" x="1067" y="1277">DocsComponent</text></g><g _ngcontent-fpb-c268=""><text _ngcontent-fpb-c268="" x="344" y="708.9678925769613" style="transform: translate(723px, 592px);">-</text></g><g _ngcontent-fpb-c268=""><text _ngcontent-fpb-c268="" x="344" y="731.9678925769613" style="transform: translate(723px, 592px);">-</text></g></g><g _ngcontent-fpb-c268=""><g _ngcontent-fpb-c268=""><rect _ngcontent-fpb-c268="" width="150" height="46px" stroke="black" stroke-width="1" fill="white" y="648" x="405" style="width: 249px; transform: translate(-6px, -183px);" data-x="-6" data-y="-183" class=""></rect><rect _ngcontent-fpb-c268="" width="150" height="81px" stroke="black" stroke-width="1" fill="white" y="694" x="405" style="width: 249px; transform: translate(-6px, -183px);" data-x="-6" data-y="-183" class=""></rect><rect _ngcontent-fpb-c268="" width="150" height="130px" stroke="black" stroke-width="1" fill="white" y="775" x="405" style="width: 249px; transform: translate(-6px, -183px);" data-x="-6" data-y="-183" class=""></rect></g><g _ngcontent-fpb-c268=""><text _ngcontent-fpb-c268="" x="403" y="481">Class</text><text _ngcontent-fpb-c268="" x="403" y="496">DiagramMenuComponent</text></g><g _ngcontent-fpb-c268=""><text _ngcontent-iqd-c268="" x="409" y="709" style="transform: translate(-6px, -182px);">+clearBoard(): void</text><text _ngcontent-iqd-c268="" x="409" y="724" style="transform: translate(-6px, -182px);">+loadFromServer(): void</text><text _ngcontent-iqd-c268="" x="409" y="739" style="transform: translate(-6px, -182px);">+logout(): void</text><text _ngcontent-iqd-c268="" x="409" y="754" style="transform: translate(-6px, -182px);">+saveOnServer(): void</text><text _ngcontent-iqd-c268="" x="409" y="769" style="transform: translate(-6px, -182px);">+saveOnDisc(type: string): void</text></g><g _ngcontent-fpb-c268=""><text _ngcontent-fpb-c268="" x="409" y="790" style="transform: translate(-6px, -182px);">dropZoneSubscription: Subscription</text><text _ngcontent-fpb-c268="" x="409" y="805" style="transform: translate(-6px, -182px);">+dropZone: HTMLElement</text><text _ngcontent-fpb-c268="" x="409" y="820" style="transform: translate(-6px, -182px);">+fileName: string</text><text _ngcontent-fpb-c268="" x="409" y="835" style="transform: translate(-6px, -182px);">+panelOpenState: boolean</text><text _ngcontent-fpb-c268="" x="409" y="850" style="transform: translate(-6px, -182px);">+showSaveAlert: boolean</text><text _ngcontent-fpb-c268="" x="409" y="865" style="transform: translate(-6px, -182px);">+showLoadAlert: boolean</text><text _ngcontent-fpb-c268="" x="409" y="880" style="transform: translate(-6px, -182px);">+user: gapi.auth2.GoogleUser</text><text _ngcontent-fpb-c268="" x="409" y="895" style="transform: translate(-6px, -182px);">+userSubscribe: Subscription</text></g></g><g _ngcontent-fpb-c268=""><g _ngcontent-fpb-c268=""><rect _ngcontent-fpb-c268="" width="150" height="39px" stroke="black" stroke-width="1" fill="white" y="718" x="473" style="width: 197px; transform: translate(1040px, 524px);" data-x="1040" data-y="524" class=""></rect><rect _ngcontent-fpb-c268="" width="150" height="20" stroke="black" stroke-width="1" fill="white" y="757" x="473" style="width: 197px; transform: translate(1040px, 524px);" data-x="1040" data-y="524" class=""></rect><rect _ngcontent-fpb-c268="" width="150" height="20" stroke="black" stroke-width="1" fill="white" y="777" x="473" style="width: 197px; transform: translate(1040px, 524px);" data-x="1040" data-y="524" class=""></rect></g><g _ngcontent-fpb-c268=""><text _ngcontent-fpb-c268="" x="1517" y="1256">Class</text><text _ngcontent-fpb-c268="" x="1517" y="1271">DiagramChoiceComponent</text></g><g _ngcontent-fpb-c268=""><text _ngcontent-fpb-c268="" x="477" y="772" style="transform: translate(1040px, 523px);">-</text></g><g _ngcontent-fpb-c268=""><text _ngcontent-fpb-c268="" x="477" y="792" style="transform: translate(1040px, 523px);">-</text></g></g><g _ngcontent-fpb-c268=""><g _ngcontent-fpb-c268=""><rect _ngcontent-fpb-c268="" width="150" height="40px" stroke="black" stroke-width="1" fill="white" y="745" x="716" data-x="-346" data-y="83" class="" style="transform: translate(-346px, 83px); width: 203px;"></rect><rect _ngcontent-fpb-c268="" width="150" height="51px" stroke="black" stroke-width="1" fill="white" y="785" x="716" data-x="-346" data-y="83" class="" style="transform: translate(-346px, 83px); width: 203px;"></rect><rect _ngcontent-fpb-c268="" width="150" height="59px" stroke="black" stroke-width="1" fill="white" y="836" x="716" data-x="-346" data-y="83" class="" style="transform: translate(-346px, 83px); width: 203px;"></rect></g><g _ngcontent-fpb-c268=""><text _ngcontent-fpb-c268="" x="375" y="843">Class</text><text _ngcontent-fpb-c268="" x="375" y="858">AuthSaveComponent</text></g><g _ngcontent-fpb-c268=""><text _ngcontent-fpb-c268="" x="720" y="800" style="transform: translate(-345px, 83px);">+onClose(): void</text><text _ngcontent-fpb-c268="" x="720" y="815" style="transform: translate(-345px, 83px);">+onSave(): void</text><text _ngcontent-fpb-c268="" x="720" y="830" style="transform: translate(-345px, 83px);">+onLogin(): void</text></g><g _ngcontent-fpb-c268=""><text _ngcontent-fpb-c268="" x="720" y="851" style="transform: translate(-345px, 83px);">-userSubscribe: Subscription</text><text _ngcontent-fpb-c268="" x="720" y="866" style="transform: translate(-345px, 83px);">+user: gapi.auth2.GoogleUser</text><text _ngcontent-fpb-c268="" x="720" y="881" style="transform: translate(-345px, 83px);">+name: string</text></g></g><g _ngcontent-fpb-c268=""><g _ngcontent-fpb-c268=""><rect _ngcontent-fpb-c268="" width="150" height="41px" stroke="black" stroke-width="1" fill="white" y="732" x="987" style="transform: translate(-886px, 487px); width: 209px;" data-x="-886" data-y="487" class=""></rect><rect _ngcontent-fpb-c268="" width="150" height="56px" stroke="black" stroke-width="1" fill="white" y="773" x="987" data-x="-886" data-y="487" class="" style="transform: translate(-886px, 487px); width: 209px;"></rect><rect _ngcontent-fpb-c268="" width="150" height="53px" stroke="black" stroke-width="1" fill="white" y="829" x="987" data-x="-886" data-y="487" class="" style="transform: translate(-886px, 487px); width: 209px;"></rect></g><g _ngcontent-fpb-c268=""><text _ngcontent-fpb-c268="" x="106" y="1234">Class</text><text _ngcontent-fpb-c268="" x="106" y="1249">AuthLoadComponent</text></g><g _ngcontent-fpb-c268=""><text _ngcontent-gqt-c268="" x="991" y="788" style="transform: translate(-885px, 487px);">+onClose() : void</text><text _ngcontent-gqt-c268="" x="991" y="803" style="transform: translate(-885px, 487px);">+onLoad() : async void</text><text _ngcontent-gqt-c268="" x="991" y="818" style="transform: translate(-885px, 487px);">+onLogin() : asyncVoid</text></g><g _ngcontent-fpb-c268=""><text _ngcontent-fpb-c268="" x="991" y="844" style="transform: translate(-885px, 487px);">-userSubscribe: Subscription</text><text _ngcontent-fpb-c268="" x="991" y="859" style="transform: translate(-885px, 487px);">+user: gapi.auth2.GoogleUser</text><text _ngcontent-fpb-c268="" x="991" y="874" style="transform: translate(-885px, 487px);">+showLoad: boolean</text></g></g><g _ngcontent-wlv-c268=""><g _ngcontent-wlv-c268=""><rect _ngcontent-wlv-c268="" width="150" height="47px" stroke="black" stroke-width="1" fill="white" y="608" x="1279" style="transform: translate(-1258px, -82px); width: 306px;" data-x="-1258" data-y="-82" class=""></rect><rect _ngcontent-wlv-c268="" width="150" height="62px" stroke="black" stroke-width="1" fill="white" y="655" x="1279" data-x="-1258" data-y="-82" class="" style="transform: translate(-1258px, -82px); width: 306px;"></rect><rect _ngcontent-wlv-c268="" width="150" height="108px" stroke="black" stroke-width="1" fill="white" y="717" x="1279" data-x="-1258" data-y="-82" class="" style="transform: translate(-1258px, -82px); width: 306px;"></rect></g><g _ngcontent-wlv-c268=""><text _ngcontent-wlv-c268="" x="26" y="541">Class</text><text _ngcontent-wlv-c268="" x="26" y="556">LoadedTableComponent</text></g><g _ngcontent-wlv-c268=""><text _ngcontent-wlv-c268="" x="1283" y="670" style="transform: translate(-1257px, -82px);">+ngAfterViewInit(): void</text><text _ngcontent-wlv-c268="" x="1283" y="685" style="transform: translate(-1257px, -82px);">+loadFromServer(diagram): void</text><text _ngcontent-wlv-c268="" x="1283" y="700" style="transform: translate(-1257px, -82px);">+deleteFromServer(id: number, row: number)</text></g><g _ngcontent-wlv-c268=""><text _ngcontent-wlv-c268="" x="1283" y="732" style="transform: translate(-1257px, -82px);">+loadedTable: ElementRef</text><text _ngcontent-wlv-c268="" x="1283" y="747" style="transform: translate(-1257px, -82px);">+loggedUser: gapi.auth2.GoogleUser</text><text _ngcontent-wlv-c268="" x="1283" y="762" style="transform: translate(-1257px, -82px);">+table: UmlDiagramSave [ ]</text><text _ngcontent-wlv-c268="" x="1283" y="777" style="transform: translate(-1257px, -82px);">+umlComponentListSubscription: Subscription</text><text _ngcontent-wlv-c268="" x="1283" y="792" style="transform: translate(-1257px, -82px);">+dropZone: HTMLElement</text><text _ngcontent-wlv-c268="" x="1283" y="807" style="transform: translate(-1257px, -82px);">+umlDiagram: HTMLElement</text></g></g><g _ngcontent-wlv-c268=""><g _ngcontent-wlv-c268=""><rect _ngcontent-wlv-c268="" width="150" height="48px" stroke="black" stroke-width="1" fill="white" y="957" x="285" style="width: 254px; transform: translate(369px, -39px);" data-x="369" data-y="-39" class=""></rect><rect _ngcontent-wlv-c268="" width="150" height="23px" stroke="black" stroke-width="1" fill="white" y="1005" x="285" style="width: 254px; transform: translate(369px, -39px);" data-x="369" data-y="-39" class=""></rect><rect _ngcontent-wlv-c268="" width="150" height="70px" stroke="black" stroke-width="1" fill="white" y="1028" x="285" style="width: 254px; transform: translate(369px, -39px);" data-x="369" data-y="-39" class=""></rect></g><g _ngcontent-wlv-c268=""><text _ngcontent-wlv-c268="" x="658" y="932">Class</text><text _ngcontent-wlv-c268="" x="658" y="947">UmlComponent</text></g><g _ngcontent-wlv-c268=""><text _ngcontent-wlv-c268="" x="289" y="1020" style="transform: translate(369px, -40px);">-</text></g><g _ngcontent-wlv-c268=""><text _ngcontent-wlv-c268="" x="289" y="1043" style="transform: translate(369px, -40px);">+name: string</text><text _ngcontent-wlv-c268="" x="289" y="1058" style="transform: translate(369px, -40px);">+imgUrl: string</text><text _ngcontent-wlv-c268="" x="289" y="1073" style="transform: translate(369px, -40px);">+type: string</text><text _ngcontent-wlv-c268="" x="289" y="1088" style="transform: translate(369px, -40px);">+svgGroup: SVGGElement</text></g></g><g _ngcontent-wlv-c268=""><g _ngcontent-wlv-c268=""><rect _ngcontent-wlv-c268="" width="150" height="43px" stroke="black" stroke-width="1" fill="white" y="340" x="1087" style="transform: translate(35px, 582px); width: 150px;" data-x="35" data-y="582" class=""></rect><rect _ngcontent-wlv-c268="" width="150" height="20" stroke="black" stroke-width="1" fill="white" y="383" x="1087" data-x="35" data-y="582" class="" style="transform: translate(35px, 582px); width: 150px;"></rect><rect _ngcontent-wlv-c268="" width="150" height="71px" stroke="black" stroke-width="1" fill="white" y="403" x="1087" data-x="35" data-y="582" class="" style="transform: translate(35px, 582px); width: 150px;"></rect></g><g _ngcontent-wlv-c268=""><text _ngcontent-wlv-c268="" x="1125" y="937">Class</text><text _ngcontent-wlv-c268="" x="1125" y="952">UmlComponentSave</text></g><g _ngcontent-wlv-c268=""><text _ngcontent-wlv-c268="" x="1091" y="398" style="transform: translate(34px, 582px);">-</text></g><g _ngcontent-wlv-c268=""><text _ngcontent-wlv-c268="" x="1091" y="418" style="transform: translate(34px, 582px);">name: string</text><text _ngcontent-wlv-c268="" x="1091" y="433" style="transform: translate(34px, 582px);">imgUrl: string</text><text _ngcontent-wlv-c268="" x="1091" y="448" style="transform: translate(34px, 582px);">type: string</text><text _ngcontent-wlv-c268="" x="1091" y="463" style="transform: translate(34px, 582px);">outerHTML: string</text></g></g><g _ngcontent-wlv-c268=""><g _ngcontent-wlv-c268=""><rect _ngcontent-wlv-c268="" width="150" height="37px" stroke="black" stroke-width="1" fill="white" y="357" x="1092" data-x="-1017" data-y="565" class="" style="transform: translate(-1017px, 565px); width: 190px;"></rect><rect _ngcontent-wlv-c268="" width="150" height="20" stroke="black" stroke-width="1" fill="white" y="394" x="1092" data-x="-1017" data-y="565" class="" style="transform: translate(-1017px, 565px); width: 190px;"></rect><rect _ngcontent-wlv-c268="" width="150" height="72px" stroke="black" stroke-width="1" fill="white" y="414" x="1092" data-x="-1017" data-y="565" class="" style="transform: translate(-1017px, 565px); width: 190px;"></rect></g><g _ngcontent-wlv-c268=""><text _ngcontent-wlv-c268="" x="80" y="937">Class</text><text _ngcontent-wlv-c268="" x="80" y="952">UmlDiagramSave</text></g><g _ngcontent-wlv-c268=""><text _ngcontent-wlv-c268="" x="1096" y="409" style="transform: translate(-1016px, 565px);">-</text></g><g _ngcontent-wlv-c268=""><text _ngcontent-wlv-c268="" x="1096" y="429" style="transform: translate(-1016px, 565px);">+name: string</text><text _ngcontent-wlv-c268="" x="1096" y="444" style="transform: translate(-1016px, 565px);">+imgUrl: string</text><text _ngcontent-wlv-c268="" x="1096" y="459" style="transform: translate(-1016px, 565px);">+type: string</text><text _ngcontent-wlv-c268="" x="1096" y="474" style="transform: translate(-1016px, 565px);">+outerHTML: string</text></g></g><g _ngcontent-iqd-c268=""><g _ngcontent-iqd-c268=""><rect _ngcontent-iqd-c268="" width="150" height="47px" stroke="black" stroke-width="1" fill="white" y="143" x="1336" style="width: 343.078px; transform: translate(-61px, 92px);" data-x="-61" data-y="92" class=""></rect><rect _ngcontent-iqd-c268="" width="150" height="157.9759521484375px" stroke="black" stroke-width="1" fill="white" y="190" x="1336" style="width: 343.078px; transform: translate(-61px, 92px);" data-x="-61" data-y="92" class=""></rect><rect _ngcontent-iqd-c268="" width="150" height="265px" stroke="black" stroke-width="1" fill="white" y="347.9759521484375" x="1336" style="width: 343.078px; transform: translate(-61px, 92px);" data-x="-61" data-y="92" class=""></rect></g><g _ngcontent-iqd-c268=""><text _ngcontent-iqd-c268="" x="1279" y="249">Class</text><text _ngcontent-iqd-c268="" x="1279" y="264">UmlClassComponentsComponent</text></g><g _ngcontent-iqd-c268=""><text _ngcontent-iqd-c268="" x="1340" y="205" style="transform: translate(-61px, 91px);">+ngOnInit(): void</text><text _ngcontent-iqd-c268="" x="1340" y="220" style="transform: translate(-61px, 91px);">+ngAfterViewInit(): void</text><text _ngcontent-iqd-c268="" x="1340" y="235" style="transform: translate(-61px, 91px);">+toggleInherit(): void</text><text _ngcontent-iqd-c268="" x="1340" y="250" style="transform: translate(-61px, 91px);">+toggleImplements(): void</text><text _ngcontent-iqd-c268="" x="1340" y="265" style="transform: translate(-61px, 91px);">+toggleDependency(): void</text><text _ngcontent-iqd-c268="" x="1340" y="280" style="transform: translate(-61px, 91px);">+toggleAssociation(): void</text><text _ngcontent-iqd-c268="" x="1340" y="295" style="transform: translate(-61px, 91px);">+toggleAggregation(): void</text><text _ngcontent-iqd-c268="" x="1340" y="310" style="transform: translate(-61px, 91px);">+toggleComposition(): void</text><text _ngcontent-iqd-c268="" x="1340" y="325" style="transform: translate(-61px, 91px);">+ngOnDestroy(): void</text></g><g _ngcontent-iqd-c268=""><text _ngcontent-iqd-c268="" x="1340" y="362.9759521484375" style="transform: translate(-61px, 91px);">-svgBoardSubscription: Subscription</text><text _ngcontent-iqd-c268="" x="1340" y="377.9759521484375" style="transform: translate(-61px, 91px);">-svgBoard: HTMLElement</text><text _ngcontent-iqd-c268="" x="1340" y="392.9759521484375" style="transform: translate(-61px, 91px);">+containerFluid: ElementRef</text><text _ngcontent-iqd-c268="" x="1340" y="407.9759521484375" style="transform: translate(-61px, 91px);">+componentList: ElementRef</text><text _ngcontent-iqd-c268="" x="1340" y="422.9759521484375" style="transform: translate(-61px, 91px);">+umlItemsList: UmlComponent[ ]</text><text _ngcontent-iqd-c268="" x="1340" y="437.9759521484375" style="transform: translate(-61px, 91px);">+umlInheritConnectorsList: UmlComponent[ ]</text><text _ngcontent-iqd-c268="" x="1340" y="452.9759521484375" style="transform: translate(-61px, 91px);">+umlImplementsConnectorsList: UmlComponent[ ]</text><text _ngcontent-iqd-c268="" x="1340" y="467.9759521484375" style="transform: translate(-61px, 91px);">+umlDependencyConnectorsList: UmlComponent[ ]</text><text _ngcontent-iqd-c268="" x="1340" y="482.9759521484375" style="transform: translate(-61px, 91px);">+umlAssociationConnectorsList: UmlComponent[ ]</text><text _ngcontent-iqd-c268="" x="1340" y="497.9759521484375" style="transform: translate(-61px, 91px);">+umlAggregationConnectorsList: UmlComponent[ ]</text><text _ngcontent-iqd-c268="" x="1340" y="512.9759521484375" style="transform: translate(-61px, 91px);">+umlCompositionConnectorsList: UmlComponent[ ]</text><text _ngcontent-iqd-c268="" x="1340" y="527.9759521484375" style="transform: translate(-61px, 91px);">+showInheritance: boolean</text><text _ngcontent-iqd-c268="" x="1340" y="542.9759521484375" style="transform: translate(-61px, 91px);">+showImplements: boolean</text><text _ngcontent-iqd-c268="" x="1340" y="557.9759521484375" style="transform: translate(-61px, 91px);">+showDependency: boolean</text><text _ngcontent-iqd-c268="" x="1340" y="572.9759521484375" style="transform: translate(-61px, 91px);">+showAssociation: boolean</text><text _ngcontent-iqd-c268="" x="1340" y="587.9759521484375" style="transform: translate(-61px, 91px);">+showAggregation: boolean</text><text _ngcontent-iqd-c268="" x="1340" y="602.9759521484375" style="transform: translate(-61px, 91px);">+showComposition: boolean</text></g></g><g _ngcontent-gqt-c268=""><path _ngcontent-gqt-c268="" d="M 199 172 L 206 178 L 213 164 L 206 158 M 210 154 L 217 160 L 225 152 L 218 146 M 222 142 L 229 148 L 237 140 L 230 134 M 234 130 L 241 136 L 249 128 L 242 122 M 246 118 L 253 124 L 427 16 L 420 10 M 436 20 L 416 0 L 441 -4 M 419 2 L 434 17 L 437 0" data-x="-124" data-y="64" class="" style="transform: translate(-124px, 64px);"></path></g><g _ngcontent-gqt-c268=""><path _ngcontent-gqt-c268="" d="M 293 221 L 300 227 L 309 218 L 302 212 M 306 208 L 313 214 L 321 206 L 314 200 M 318 196 L 325 202 L 333 194 L 326 188 M 330 184 L 337 190 L 345 182 L 338 176 M 342 172 L 349 178 L 560 101 L 553 95 M 569 105 L 549 85 L 574 81 M 552 87 L 567 102 L 570 85" data-x="-17" data-y="16" class="" style="transform: translate(-17px, 16px);"></path></g><g _ngcontent-gqt-c268=""><path _ngcontent-gqt-c268="" d="M 600 213 L 607 219 L 616 210 L 609 204 M 613 200 L 620 206 L 628 198 L 621 192 M 625 188 L 632 194 L 640 186 L 633 180 M 637 176 L 644 182 L 652 174 L 645 168 M 649 164 L 656 170 L 787 97 L 780 91 M 796 101 L 776 81 L 801 77 M 779 83 L 794 98 L 797 81" data-x="-15" data-y="19" class="" style="transform: translate(-15px, 19px);"></path></g><g _ngcontent-gqt-c268=""><path _ngcontent-gqt-c268="" d="M 847 202 L 840 209 L 833 202 L 840 195 M 837 192 L 830 199 L 823 192 L 830 185 M 827 182 L 820 189 L 813 182 L 820 175 M 817 172 L 810 179 L 803 172 L 810 165 M 807 162 L 800 169 L 714 86 L 721 79 M 703 86 L 701 68 L 720 69 M 697 64 L 701 89 L 723 67" data-x="-72" data-y="33" class="" style="transform: translate(-72px, 33px);"></path></g><g _ngcontent-gqt-c268=""><path _ngcontent-gqt-c268="" d="M 1248 197 L 1241 204 L 1234 197 L 1241 190 M 1238 187 L 1231 194 L 1224 187 L 1231 180 M 1228 177 L 1221 184 L 1214 177 L 1221 170 M 1218 167 L 1211 174 L 1204 167 L 1211 160 M 1208 157 L 1201 164 L 650 83 L 657 76 M 639 83 L 637 65 L 656 66 M 633 61 L 637 86 L 659 64" data-x="31" data-y="36" class="" style="transform: translate(31px, 36px);"></path></g><g _ngcontent-gqt-c268=""><path _ngcontent-gqt-c268="" d="M 1068 228 L 1076 228 L 1076 218 L 1068 218 M 1068 171 L 1076 171 L 1076 100 L 1068 100 M 1068 185 L 1076 185 L 1076 176 L 1068 176 M 1068 199 L 1076 199 L 1076 190 L 1068 190 M 1068 213 L 1076 213 L 1076 204 L 1068 204 M 1060 94 L 1084 94 L 1072 82 M 1087 95 L 1057 95 L 1072 77" data-x="1" data-y="11" class="" style="transform: translate(1px, 11px);"></path></g><g _ngcontent-gqt-c268=""><path _ngcontent-gqt-c268="" d="M 1397 229 L 1390 236 L 1379 222 L 1386 215 M 1383 212 L 1376 219 L 1369 212 L 1376 205 M 1373 202 L 1366 209 L 1359 202 L 1366 195 M 1363 192 L 1356 199 L 1349 192 L 1356 185 M 1353 182 L 1346 189 L 908 117 L 915 110 M 897 117 L 895 99 L 914 100 M 891 95 L 895 120 L 917 98" style="transform: translate(-12px, 0px);" data-x="-12" data-y="0" class=""></path></g><g _ngcontent-gqt-c268=""><path _ngcontent-gqt-c268="" d="M 1459 175 L 1452 182 L 1445 175 L 1452 168 M 1449 165 L 1442 172 L 1435 165 L 1442 158 M 1439 155 L 1432 162 L 1425 155 L 1432 148 M 1429 145 L 1422 152 L 1415 145 L 1422 138 M 1419 135 L 1412 142 L 1164 55 L 1171 48 M 1153 55 L 1151 37 L 1170 38 M 1147 33 L 1151 58 L 1173 36" data-x="17" data-y="53" class="" style="transform: translate(17px, 53px);"></path></g><g _ngcontent-gqt-c268=""><path _ngcontent-gqt-c268="" d="M 248 523 L 255 529 L 306 470 L 299 464 M 303 460 L 310 466 L 318 458 L 311 452 M 315 448 L 322 454 L 330 446 L 323 440 M 327 436 L 334 442 L 342 434 L 335 428 M 339 424 L 346 430 L 569 116 L 562 110 M 578 120 L 558 100 L 583 96 M 561 102 L 576 117 L 579 100" style=""></path></g><g _ngcontent-gqt-c268=""><path _ngcontent-gqt-c268="" d="M 797 657 L 804 657 L 804 669 L 797 669 M 797 674 L 804 674 L 804 686 L 797 686 M 797 691 L 804 691 L 804 703 L 797 703 M 797 708 L 804 708 L 804 720 L 797 720 M 797 725 L 804 725 L 804 904 L 797 904 M 786 909 L 816 909 L 801 923 M 816 909 L 786 909 L 801 928" data-x="72" data-y="-8" class="" style="transform: translate(72px, -8px);"></path></g><g _ngcontent-gqt-c268=""><path _ngcontent-gqt-c268="" d="M 1198 749 L 1204 755 L 1198 761 L 1192 755 M 1162 785 L 1168 791 L 850 955 L 844 949 M 1171 776 L 1177 782 L 1171 788 L 1165 782 M 1180 767 L 1186 773 L 1180 779 L 1174 773 M 1189 758 L 1195 764 L 1189 770 L 1183 764 M 854 966 L 832 944 L 832 964 M 832 944 L 854 966 L 828 968" data-x="77" data-y="-48" class="" style="transform: translate(77px, -48px);"></path></g><g _ngcontent-gqt-c268=""><path _ngcontent-gqt-c268="" d="M 195 784 L 202 784 L 202 796 L 195 796 M 195 801 L 202 801 L 202 813 L 195 813 M 195 818 L 202 818 L 202 830 L 195 830 M 195 835 L 202 835 L 202 847 L 195 847 M 195 852 L 202 852 L 202 940 L 195 940 M 184 945 L 214 945 L 199 959 M 214 945 L 184 945 L 199 964" data-x="-94" data-y="-41" class="" style="transform: translate(-94px, -41px);"></path></g><g _ngcontent-gqt-c268=""><path _ngcontent-gqt-c268="" d="M 1123 682 L 1130 682 L 1130 694 L 1123 694 M 1123 699 L 1130 699 L 1130 711 L 1123 711 M 1123 716 L 1130 716 L 1130 728 L 1123 728 M 1123 733 L 1130 733 L 1130 745 L 1123 745 M 1123 750 L 1130 750 L 1130 931 L 1123 931 M 1112 936 L 1142 936 L 1127 950 M 1142 936 L 1112 936 L 1127 955" data-x="8" data-y="-33" class="" style="transform: translate(8px, -33px);"></path></g><g _ngcontent-gqt-c268=""><path _ngcontent-gqt-c268="" d="M 344 1197 L 352 1197 L 352 1187 L 344 1187 M 344 1140 L 352 1140 L 352 1053 L 344 1053 M 344 1154 L 352 1154 L 352 1145 L 344 1145 M 344 1168 L 352 1168 L 352 1159 L 344 1159 M 344 1182 L 352 1182 L 352 1173 L 344 1173 M 333 1048 L 363 1048 L 348 1035 M 363 1048 L 333 1048 L 348 1030" data-x="-125" data-y="22" class="" style="transform: translate(-125px, 22px);"></path></g><g _ngcontent-gqt-c268=""><path _ngcontent-gqt-c268="" d=" M 288  838 L 288  848 L 276  848 L 276  838 M 271  838 L 271  848 L 259  848 L 259  838 M 254  838 L 254  848 L 242  848 L 242  838 M 237  838 L 237  848 L 225  848 L 225  838 M 220  838 L 220  848 L 208  848 L 208  838 M 203  825 L 203  861 L 185  843 M 203  861 L 203  825 L 180  843" data-x="82" data-y="89" class="" style="transform: translate(82px, 89px);"></path></g><g _ngcontent-gqt-c268=""><path _ngcontent-gqt-c268="" d="M 747 674 L 753 680 L 587 861 L 581 855 M 581 888 L 584 858 L 553 861 L 550 891 M 556 864 L 581 861 L 578 885 L 553 888" data-x="22" data-y="-28" class="" style="transform: translate(22px, -28px);"></path></g><g _ngcontent-gqt-c268=""><path _ngcontent-gqt-c268="" d="M 787 672 L 793 678 L 320 1357 L 314 1351 M 314 1384 L 317 1354 L 286 1357 L 283 1387 M 289 1360 L 314 1357 L 311 1381 L 286 1384" style="transform: translate(24px, -25px);" data-x="24" data-y="-25" class=""></path></g><g _ngcontent-gqt-c268=""><path _ngcontent-gqt-c268="" d="M 780 1128 L 787 1128 L 787 1140 L 780 1140 M 780 1145 L 787 1145 L 787 1157 L 780 1157 M 780 1162 L 787 1162 L 787 1174 L 780 1174 M 780 1179 L 787 1179 L 787 1191 L 780 1191 M 780 1196 L 787 1196 L 787 1293 L 780 1293 M 769 1298 L 799 1298 L 784 1312 M 799 1298 L 769 1298 L 784 1317" data-x="63" data-y="-70" class="" style="transform: translate(63px, -70px);"></path></g><g _ngcontent-gqt-c268=""><path _ngcontent-gqt-c268="" d="M 1327 830 L 1327 840 L 1251 840 L 1251 830 M 1230 821 L 1248 835 L 1230 849 L 1211 835 M 1230 852 L 1251 835 L 1230 818 L 1208 835" style="transform: translate(-561px, -305px);" data-x="-561" data-y="-305" class=""></path></g><g _ngcontent-gqt-c268=""><path _ngcontent-gqt-c268="" d=" M 496  799 L 504  799 L 504  728 L 496  728 M 515  710 L 500  728 L 485  710 L 500  690" data-x="-18" data-y="33" class="" style="transform: translate(-18px, 33px);"></path></g><g _ngcontent-gqt-c268=""><path _ngcontent-gqt-c268="" d="M 331 1118 L 337 1124 L 470 654 L 464 648 M 492 650 L 468 651 L 470 629 L 495 625" data-x="-96" data-y="98" class="" style="transform: translate(-96px, 98px);"></path></g></g></svg>