<svg _ngcontent-gwo-c109="" xmlns="http://www.w3.org/2000/svg" viewBox="147 8 1316.969970703125 859"><g _ngcontent-gwo-c109=""><g _ngcontent-woc-c268="" style=""><g _ngcontent-woc-c268=""><rect _ngcontent-woc-c268="" width="200" height="75" stroke="black" stroke-width="1" fill="white" y="74" x="279" class="getting-dragged" style="width: 1169.97px; height: 809.194px; transform: translate(5px, -66px);" data-x="5" data-y="-66"></rect><rect _ngcontent-woc-c268="" width="20" height="30" stroke="black" stroke-width="1" fill="white" y="84" x="1418.9735295993576" class="getting-dragged" data-x="5" data-y="-66" style="transform: translate(5px, -66px);"></rect><rect _ngcontent-woc-c268="" width="10" height="5" stroke="black" stroke-width="1" fill="white" y="89" x="1413.9735295993576" class="getting-dragged" data-x="5" data-y="-66" style="transform: translate(5px, -66px);"></rect><rect _ngcontent-woc-c268="" width="10" height="5" stroke="black" stroke-width="1" fill="white" y="104" x="1413.9735295993576" class="getting-dragged" data-x="5" data-y="-66" style="transform: translate(5px, -66px);"></rect></g><g _ngcontent-woc-c268=""><text _ngcontent-woc-c268="" x="284" y="104" class="getting-dragged" style="width: 1169.97px; height: 809.194px; transform: translate(5px, -66px);" data-x="5" data-y="-66">Odczytywanie zapisanych diagramów z bazy danych</text></g></g><g _ngcontent-woc-c268="" data-x="-207" data-y="-56" class="" style="transform: translate(-207px, -56px);"><g _ngcontent-woc-c268=""><rect _ngcontent-woc-c268="" width="25" height="25" stroke="black" stroke-width="1" fill="white" y="156" x="473"></rect></g></g><g _ngcontent-woc-c268="" style=""><g _ngcontent-woc-c268=""><rect _ngcontent-woc-c268="" width="200" height="75" stroke="black" stroke-width="1" fill="white" y="211" x="654" data-x="395" data-y="-2" class="" style="transform: translate(395px, -2px);"></rect><rect _ngcontent-woc-c268="" width="20" height="30" stroke="black" stroke-width="1" fill="white" y="221" x="824" data-x="395" data-y="-2" class="" style="transform: translate(395px, -2px);"></rect><rect _ngcontent-woc-c268="" width="10" height="5" stroke="black" stroke-width="1" fill="white" y="226" x="819" data-x="395" data-y="-2" class="" style="transform: translate(395px, -2px);"></rect><rect _ngcontent-woc-c268="" width="10" height="5" stroke="black" stroke-width="1" fill="white" y="241" x="819" data-x="395" data-y="-2" class="" style="transform: translate(395px, -2px);"></rect></g><g _ngcontent-woc-c268=""><text _ngcontent-woc-c268="" x="999" y="192" data-x="55" data-y="47" class="" style="transform: translate(55px, 47px);">Logowanie za pomocą</text><text _ngcontent-woc-c268="" x="999" y="212" data-x="55" data-y="47" class="" style="transform: translate(55px, 47px);">Google</text></g></g><g _ngcontent-woc-c268="" style=""><g _ngcontent-woc-c268=""><path _ngcontent-woc-c268="" d="M 1123 77 L 1118 77 L 1118 -6 L 1123 -6" data-x="19" data-y="132" class="" style="transform: translate(19px, 132px);"></path></g><g _ngcontent-woc-c268=""><circle _ngcontent-woc-c268="" stroke="black" stroke-width="1" r="12" fill="white" fill-opacity="1.0" cy="-16" cx="1121" data-x="19" data-y="132" class="" style="transform: translate(19px, 132px);"></circle></g></g><g _ngcontent-woc-c268=""><path _ngcontent-woc-c268="" d="M 1374 224 L 1374 234 L 1037 234 L 1037 224 M 1032 224 L 1032 234 L 1020 234 L 1020 224 M 1015 224 L 1015 234 L 1003 234 L 1003 224 M 998 224 L 998 234 L 986 234 L 986 224 M 981 224 L 981 234 L 566 234 L 566 224 M 561 211 L 561 247 L 543 229 M 561 247 L 561 211 L 538 229" data-x="-246" data-y="-114" class="" style="transform: translate(-246px, -114px);"></path></g><g _ngcontent-woc-c268="" style=""><g _ngcontent-woc-c268=""><rect _ngcontent-woc-c268="" width="200" height="75" stroke="black" stroke-width="1" fill="white" y="282" x="548" data-x="2" data-y="-102" class="" style="transform: translate(2px, -102px); width: 200px; height: 75px;"></rect><rect _ngcontent-woc-c268="" width="20" height="30" stroke="black" stroke-width="1" fill="white" y="292" x="718" data-x="2" data-y="-102" class="" style="transform: translate(2px, -102px);"></rect><rect _ngcontent-woc-c268="" width="10" height="5" stroke="black" stroke-width="1" fill="white" y="297" x="713" data-x="2" data-y="-102" class="" style="transform: translate(2px, -102px);"></rect><rect _ngcontent-woc-c268="" width="10" height="5" stroke="black" stroke-width="1" fill="white" y="312" x="713" data-x="2" data-y="-102" class="" style="transform: translate(2px, -102px);"></rect></g><g _ngcontent-woc-c268=""><text _ngcontent-woc-c268="" x="511" y="315" data-x="44" data-y="-105" class="" style="transform: translate(44px, -105px); width: 200px; height: 75px;">Baza danych</text></g></g><g _ngcontent-woc-c268="" style=""><g _ngcontent-woc-c268=""><rect _ngcontent-woc-c268="" width="200" height="75" stroke="black" stroke-width="1" fill="white" y="446" x="747" data-x="-203" data-y="7" class="" style="transform: translate(-203px, 7px);"></rect><rect _ngcontent-woc-c268="" width="20" height="30" stroke="black" stroke-width="1" fill="white" y="456" x="917" data-x="-203" data-y="7" class="" style="transform: translate(-203px, 7px);"></rect><rect _ngcontent-woc-c268="" width="10" height="5" stroke="black" stroke-width="1" fill="white" y="461" x="912" data-x="-203" data-y="7" class="" style="transform: translate(-203px, 7px);"></rect><rect _ngcontent-woc-c268="" width="10" height="5" stroke="black" stroke-width="1" fill="white" y="476" x="912" data-x="-203" data-y="7" class="" style="transform: translate(-203px, 7px);"></rect></g><g _ngcontent-woc-c268=""><text _ngcontent-woc-c268="" x="551" y="477">Spring REST API</text></g></g><g _ngcontent-woc-c268="" style=""><g _ngcontent-woc-c268=""><path _ngcontent-woc-c268="" d="M 1032 432 L 1027 432 L 1027 339 L 1032 339" data-x="-382" data-y="-85" class="" style="transform: translate(-382px, -85px);"></path></g><g _ngcontent-woc-c268=""><circle _ngcontent-woc-c268="" stroke="black" stroke-width="1" r="12" fill="white" fill-opacity="1.0" cy="429" cx="1029" data-x="-382" data-y="-85" class="" style="transform: translate(-382px, -85px);"></circle></g></g><g _ngcontent-woc-c268=""><path _ngcontent-woc-c268="" d="M 1046 411 L 1051 411 L 1051 321 L 1046 321 M 1034 304 C 1034 326 1063 326 1063 304 M 1062 304 C 1062 325 1035 325 1035 304" data-x="-401" data-y="42" class="" style="transform: translate(-401px, 42px);"></path></g><g _ngcontent-woc-c268="" style=""><g _ngcontent-woc-c268=""><rect _ngcontent-woc-c268="" width="200" height="75" stroke="black" stroke-width="1" fill="white" y="470" x="1085" data-x="-56" data-y="-23" class="" style="transform: translate(-56px, -23px);"></rect><rect _ngcontent-woc-c268="" width="20" height="30" stroke="black" stroke-width="1" fill="white" y="480" x="1255" data-x="-56" data-y="-23" class="" style="transform: translate(-56px, -23px);"></rect><rect _ngcontent-woc-c268="" width="10" height="5" stroke="black" stroke-width="1" fill="white" y="485" x="1250" data-x="-56" data-y="-23" class="" style="transform: translate(-56px, -23px);"></rect><rect _ngcontent-woc-c268="" width="10" height="5" stroke="black" stroke-width="1" fill="white" y="500" x="1250" data-x="-56" data-y="-23" class="" style="transform: translate(-56px, -23px);"></rect></g><g _ngcontent-woc-c268=""><text _ngcontent-woc-c268="" x="1034" y="477">Tabela z odczytanymi</text><text _ngcontent-woc-c268="" x="1034" y="497">diagramami</text></g></g><g _ngcontent-woc-c268=""><path _ngcontent-woc-c268="" d="M 838 474 L 964 474 L 964 468 L 838 468 M 824 457 C 842 457 842 485 824 485 M 824 484 C 840 484 840 458 824 458" data-x="64" data-y="12" class="" style="transform: translate(64px, 12px);"></path></g><g _ngcontent-woc-c268="" style=""><g _ngcontent-woc-c268=""><path _ngcontent-woc-c268="" d="M 810 451 L 810 446 L 949 446 L 949 451" data-x="-66" data-y="35" class="" style="transform: translate(-66px, 35px);"></path></g><g _ngcontent-woc-c268=""><circle _ngcontent-woc-c268="" stroke="black" stroke-width="1" r="12" fill="white" fill-opacity="1.0" cy="448" cx="949" data-x="-66" data-y="35" class="" style="transform: translate(-66px, 35px);"></circle></g></g><g _ngcontent-woc-c268="" style=""><g _ngcontent-woc-c268=""><path _ngcontent-woc-c268="" d=" M 1173  574 L 1168  574 L 1168  484 L 1173  484" data-x="11" data-y="37" class="" style="transform: translate(11px, 37px);"></path></g><g _ngcontent-woc-c268=""><circle _ngcontent-woc-c268="" stroke="black" stroke-width="1" r="12" fill="white" fill-opacity="1.0" cy="571" cx="1170" data-x="11" data-y="37" class="" style="transform: translate(11px, 37px);"></circle></g></g><g _ngcontent-woc-c268="" style=""><g _ngcontent-woc-c268=""><path _ngcontent-woc-c268="" d="M 861 601 L 858 598 L 991 524 L 994 527" data-x="37" data-y="-5" class="" style="transform: translate(37px, -5px);"></path></g><g _ngcontent-woc-c268=""><circle _ngcontent-woc-c268="" stroke="black" stroke-width="1" r="12" fill="white" fill-opacity="1.0" cy="609" cx="853" data-x="37" data-y="-5" class="" style="transform: translate(37px, -5px);"></circle></g></g><g _ngcontent-woc-c268=""><path _ngcontent-woc-c268="" d="M 763 557 L 768 552 L 902 617 L 897 622 M 900 639 C 885 624 909 607 921 618 M 920 619 C 909 608 886 624 901 638" data-x="-23" data-y="-26" class="" style="transform: translate(-23px, -26px);"></path></g><g _ngcontent-woc-c268="" data-x="-4" data-y="-6" class="" style="transform: translate(-4px, -6px);"><g _ngcontent-woc-c268=""><rect _ngcontent-woc-c268="" width="25" height="25" stroke="black" stroke-width="1" fill="white" y="812" x="1173"></rect></g></g><g _ngcontent-woc-c268=""><path _ngcontent-woc-c268="" d="M 1183 639 L 1190 639 L 1190 692 L 1183 692 M 1183 697 L 1190 697 L 1190 709 L 1183 709 M 1183 714 L 1190 714 L 1190 726 L 1183 726 M 1183 731 L 1190 731 L 1190 743 L 1183 743 M 1183 748 L 1190 748 L 1190 800 L 1183 800 M 1172 805 L 1202 805 L 1187 819 M 1202 805 L 1172 805 L 1187 824" data-x="-6" data-y="-19" class="" style="transform: translate(-6px, -19px);"></path></g><g _ngcontent-woc-c268="" data-x="-102" data-y="12" class="" style="transform: translate(-102px, 12px);"><text _ngcontent-woc-c268="" x="766" y="332">JPA Repository</text></g><g _ngcontent-woc-c268="" data-x="-38" data-y="86" class="" style="transform: translate(-38px, 86px);"><text _ngcontent-woc-c268="" x="888" y="374">HTTP GET</text></g><g _ngcontent-woc-c268="" data-x="-27" data-y="41" class="" style="transform: translate(-27px, 41px);"><text _ngcontent-woc-c268="" x="873" y="527">HTTP DELETE</text></g><g _ngcontent-woc-c268="" style="transform: translate(-61px, 19px);" data-x="-61" data-y="19" class=""><text _ngcontent-woc-c268="" x="1259" y="593">Załaduj diagram</text></g><g _ngcontent-woc-c268="" data-x="-45" data-y="15" class="" style="transform: translate(-45px, 15px);"><text _ngcontent-woc-c268="" x="1194" y="79">Email</text></g><g _ngcontent-woc-c268="" style="transform: translate(-36px, 4px);" data-x="-36" data-y="4" class=""><text _ngcontent-woc-c268="" x="183" y="89">Interfejs użytkownika</text></g><g _ngcontent-woc-c268="" style="transform: translate(24px, -25px);" data-x="24" data-y="-25" class=""><text _ngcontent-woc-c268="" x="1105" y="878">Edycja diagramu</text></g></g></svg>