<svg _ngcontent-udm-c109="" xmlns="http://www.w3.org/2000/svg" viewBox="263 43 944 724"><g _ngcontent-udm-c109=""><g _ngcontent-afv-c268="" style=""><g _ngcontent-afv-c268=""><path _ngcontent-afv-c268="" stroke="black" stroke-width="1" fill="white" d="M 586 468.73015092560775 L 586 168 L 839.7491337574363 168 L 839.7491337574363 468.73015092560775 L 586 468.73015092560775" data-x="-323" data-y="101" class="" style="transform: translate(-323px, 101px);"></path><path _ngcontent-afv-c268="" stroke="black" stroke-width="1" fill="white" d="M 850.7491337574364 461.73015092560775 L 850.7491337574364 158 L 839.7491337574363 168 L 839.7491337574363 468.73015092560775 L 850.7491337574364 461.73015092560775" data-x="-323" data-y="101" class="" style="transform: translate(-323px, 101px);"></path><path _ngcontent-afv-c268="" stroke="black" stroke-width="1" fill="white" d="M 586 168 L 597 158 L 850.7491337574364 158 L 839.7491337574363 168" data-x="-323" data-y="101" class="" style="transform: translate(-323px, 101px);"></path></g><g _ngcontent-afv-c268=""><text _ngcontent-afv-c268="" x="199" y="229" data-x="74" data-y="65" class="" style="transform: translate(74px, 65px);">Web Server</text></g></g><g _ngcontent-afv-c268="" style=""><g _ngcontent-afv-c268=""><path _ngcontent-afv-c268="" stroke="black" stroke-width="1" fill="white" d="M 1010 110 L 1010 33 L 1160 33 L 1160 110 L 1010 110" data-x="-371" data-y="20" class="" style="transform: translate(-371px, 20px);"></path><path _ngcontent-afv-c268="" stroke="black" stroke-width="1" fill="white" d="M 1171 103 L 1171 23 L 1160 33 L 1160 110 L 1171 103" data-x="-371" data-y="20" class="" style="transform: translate(-371px, 20px);"></path><path _ngcontent-afv-c268="" stroke="black" stroke-width="1" fill="white" d="M 1010 33 L 1021 23 L 1171 23 L 1160 33" data-x="-371" data-y="20" class="" style="transform: translate(-371px, 20px);"></path></g><g _ngcontent-afv-c268=""><text _ngcontent-afv-c268="" x="975" y="112" data-x="-326" data-y="-34" class="" style="transform: translate(-326px, -34px);">User device</text></g></g><g _ngcontent-afv-c268="" style=""><g _ngcontent-afv-c268=""><path _ngcontent-afv-c268="" stroke="black" stroke-width="1" fill="white" d="M 647 671 L 647 467 L 979 467 L 979 671 L 647 671" data-x="207" data-y="86" class="" style="transform: translate(207px, 86px);"></path><path _ngcontent-afv-c268="" stroke="black" stroke-width="1" fill="white" d="M 990 664 L 990 457 L 979 467 L 979 671 L 990 664" data-x="207" data-y="86" class="" style="transform: translate(207px, 86px);"></path><path _ngcontent-afv-c268="" stroke="black" stroke-width="1" fill="white" d="M 647 467 L 658 457 L 990 457 L 979 467" data-x="207" data-y="86" class="" style="transform: translate(207px, 86px);"></path></g><g _ngcontent-afv-c268=""><text _ngcontent-afv-c268="" x="1103" y="584" data-x="-239" data-y="-6" class="" style="transform: translate(-239px, -6px);">Database Server</text></g></g><g _ngcontent-afv-c268="" style=""><g _ngcontent-afv-c268=""><rect _ngcontent-afv-c268="" width="150" height="60" stroke="black" stroke-width="1" fill="white" y="663" x="1064" data-x="-123" data-y="-50" class="" style="transform: translate(-123px, -50px);"></rect></g><g _ngcontent-afv-c268=""><path _ngcontent-afv-c268="" stroke="black" stroke-width="1" fill="white" d=" M 1189  693 L 1189  673 L 1199  673 L 1204  678 L 1204  693 L 1189  693 M 1199  673 L 1199  678 L 1204  678 L 1199  678" data-x="-123" data-y="-50" class="" style="transform: translate(-123px, -50px);"></path></g><g _ngcontent-afv-c268=""><text _ngcontent-afv-c268="" x="896" y="566" data-x="50" data-y="82" class="" style="transform: translate(50px, 82px);">MySQL DB</text></g></g><g _ngcontent-afv-c268="" style=""><g _ngcontent-afv-c268=""><rect _ngcontent-afv-c268="" width="150" height="60" stroke="black" stroke-width="1" fill="white" y="275" x="142" data-x="176" data-y="38" class="" style="transform: translate(176px, 38px);"></rect></g><g _ngcontent-afv-c268=""><path _ngcontent-afv-c268="" stroke="black" stroke-width="1" fill="white" d=" M 267  305 L 267  285 L 277  285 L 282  290 L 282  305 L 267  305 M 277  285 L 277  290 L 282  290 L 277  290" data-x="176" data-y="38" class="" style="transform: translate(176px, 38px);"></path></g><g _ngcontent-afv-c268=""><text _ngcontent-afv-c268="" x="323" y="348">main.js</text></g></g><g _ngcontent-afv-c268="" style=""><g _ngcontent-afv-c268=""><path _ngcontent-afv-c268="" stroke="black" stroke-width="1" fill="white" d="M 815 310 L 815 144 L 1073 144 L 1073 310 L 815 310" data-x="76" data-y="127" class="" style="transform: translate(76px, 127px);"></path><path _ngcontent-afv-c268="" stroke="black" stroke-width="1" fill="white" d="M 1084 303 L 1084 134 L 1073 144 L 1073 310 L 1084 303" data-x="76" data-y="127" class="" style="transform: translate(76px, 127px);"></path><path _ngcontent-afv-c268="" stroke="black" stroke-width="1" fill="white" d="M 815 144 L 826 134 L 1084 134 L 1073 144" data-x="76" data-y="127" class="" style="transform: translate(76px, 127px);"></path></g><g _ngcontent-afv-c268=""><text _ngcontent-afv-c268="" x="616" y="181" data-x="285" data-y="115" class="" style="transform: translate(285px, 115px);">Backend Tomcat Server</text></g></g><g _ngcontent-afv-c268="" style=""><g _ngcontent-afv-c268=""><rect _ngcontent-afv-c268="" width="187" height="60" stroke="black" stroke-width="1" fill="white" y="230" x="522" data-x="405" data-y="75" class="" style="transform: translate(405px, 75px);"></rect></g><g _ngcontent-afv-c268=""><path _ngcontent-afv-c268="" stroke="black" stroke-width="1" fill="white" d="M 684 260 L 684 240 L 694 240 L 699 245 L 699 260 L 684 260 M 694 240 L 694 245 L 699 245 L 694 245" data-x="405" data-y="75" class="" style="transform: translate(405px, 75px);"></path></g><g _ngcontent-afv-c268=""><text _ngcontent-afv-c268="" x="647" y="269" data-x="285" data-y="71" class="" style="transform: translate(285px, 71px);">backend_praca_inz.war</text></g></g><g _ngcontent-afv-c268="" style=""><g _ngcontent-afv-c268=""><rect _ngcontent-afv-c268="" width="150" height="60" stroke="black" stroke-width="1" fill="white" y="408" x="224" data-x="93" data-y="70" class="" style="transform: translate(93px, 70px);"></rect></g><g _ngcontent-afv-c268=""><path _ngcontent-afv-c268="" stroke="black" stroke-width="1" fill="white" d=" M 349  438 L 349  418 L 359  418 L 364  423 L 364  438 L 349  438 M 359  418 L 359  423 L 364  423 L 359  423" data-x="93" data-y="70" class="" style="transform: translate(93px, 70px);"></path></g><g _ngcontent-afv-c268=""><text _ngcontent-afv-c268="" x="323" y="444" data-x="-1" data-y="69" class="" style="transform: translate(-1px, 69px);">index.html</text></g></g><g _ngcontent-afv-c268=""><path _ngcontent-afv-c268="" d=" M 1006  461 L 1013  461 L 1013  473 L 1006  473 M 1006  478 L 1013  478 L 1013  490 L 1006  490 M 1006  495 L 1013  495 L 1013  507 L 1006  507 M 1006  512 L 1013  512 L 1013  524 L 1006  524 M 1006  529 L 1013  529 L 1013  541 L 1006  541 M 995  546 L 1025  546 L 1010  560 M 1025  546 L 995  546 L 1010  565" data-x="-619" data-y="-87" class="" style="transform: translate(-619px, -87px);"></path></g><g _ngcontent-afv-c268=""><path _ngcontent-afv-c268="" d="M 426 230 L 421 226 L 537 96 L 541 100" data-x="102" data-y="32" class="" style="transform: translate(102px, 32px);"></path></g><g _ngcontent-afv-c268=""><path _ngcontent-afv-c268="" d="M 596 366 L 596 360 L 959 360 L 959 366" style="transform: translate(-69px, 4px);" data-x="-69" data-y="4" class=""></path></g><g _ngcontent-afv-c268=""><path _ngcontent-afv-c268="" d="M 1015 497 L 1009 497 L 1009 392 L 1015 392" data-x="5" data-y="45" class="" style="transform: translate(5px, 45px);"></path></g></g></svg>