<svg _ngcontent-tnq-c109="" xmlns="http://www.w3.org/2000/svg" viewBox="72 14 1691 718"><g _ngcontent-tnq-c109=""><g _ngcontent-cvf-c268="" style=""><g _ngcontent-cvf-c268=""><path _ngcontent-cvf-c268="" d="M 348 128 L 351 128 L 351 168 L 348 168 M 348 743 L 351 743 L 351 328 L 348 328 M 348 178 L 351 178 L 351 218 L 348 218 M 348 268 L 351 268 L 351 228 L 348 228 M 348 318 L 351 318 L 351 278 L 348 278 M 340  102 L 348  79 L 349  80 L 341  102 M 359  102 L 350  80 L 351  79 L 360  102 M 349  79 L 350  79 L 350  52 L 349  52 M 341  58 L 341  59 L 358  59 L 358  58" data-x="-258" data-y="-22" class="" style="transform: translate(-258px, -22px);"></path></g><g _ngcontent-cvf-c268=""><circle _ngcontent-cvf-c268="" stroke="black" stroke-width="1" r="4" cy="48" cx="349" data-x="-258" data-y="-22" class="" style="transform: translate(-258px, -22px);"></circle></g><g _ngcontent-cvf-c268=""><text _ngcontent-gpi-c268="" x="72" y="96">Diagram creator</text></g></g><g _ngcontent-cvf-c268="" style=""><g _ngcontent-cvf-c268=""><path _ngcontent-cvf-c268="" d=" M 766  372 L 767  372 L 767  388 L 766  388 M 766  388 L 745  409 L 745  410 L 767  388 M 745  409 L 686  409 L 686  410 L 745  410" data-x="80" data-y="-182" class="" style="transform: translate(80px, -182px);"></path></g><g _ngcontent-cvf-c268=""><rect _ngcontent-cvf-c268="" width="566px" height="301px" stroke="black" stroke-width="1" fill="white" fill-opacity="0.0" y="372" x="685" data-x="80" data-y="-182" class="" style="transform: translate(80px, -182px);"></rect></g><g _ngcontent-cvf-c268=""><text _ngcontent-gpi-c268="" x="1424" y="713" data-x="-648" data-y="-503" class="" style="transform: translate(-648px, -503px);">loop</text></g></g><g _ngcontent-cvf-c268="" style=""><g _ngcontent-cvf-c268=""><path _ngcontent-cvf-c268="" d=" M 1084  582 L 1085  582 L 1085  598 L 1084  598 M 1084  598 L 1063  619 L 1063  620 L 1085  598 M 1063  619 L 1004  619 L 1004  620 L 1063  620" data-x="-753" data-y="-487" class="" style="transform: translate(-753px, -487px);"></path></g><g _ngcontent-cvf-c268=""><rect _ngcontent-cvf-c268="" width="332px" height="170px" stroke="black" stroke-width="1" fill="white" fill-opacity="0.0" y="582" x="1003" data-x="-753" data-y="-487" class="" style="transform: translate(-753px, -487px);"></rect></g><g _ngcontent-cvf-c268=""><text _ngcontent-cvf-c268="" y="602" x="1014" data-x="-753" data-y="-487" class="" style="transform: translate(-753px, -487px);">alt</text></g></g><g _ngcontent-gpi-c268="" style=""><g _ngcontent-gpi-c268=""><path _ngcontent-gpi-c268="" d="M 169 75 L 172 75 L 172 115 L 169 115 M 169 700 L 172 700 L 172 275 L 169 275 M 169 125 L 172 125 L 172 165 L 169 165 M 169 215 L 172 215 L 172 175 L 169 175 M 169 265 L 172 265 L 172 225 L 169 225" data-x="115" data-y="21" class="" style="transform: translate(115px, 21px);"></path></g><g _ngcontent-gpi-c268=""><rect _ngcontent-gpi-c268="" width="150" height="60" stroke="black" stroke-width="1" fill="white" y="0" x="94" data-x="115" data-y="21" class="" style="transform: translate(115px, 21px);"></rect></g><g _ngcontent-gpi-c268=""><text _ngcontent-gpi-c268="" x="169" y="56" data-x="45" data-y="0" class="" style="transform: translate(45px, 0px);">Diagram choice</text></g></g><g _ngcontent-gpi-c268="" style=""><g _ngcontent-gpi-c268=""><path _ngcontent-gpi-c268="" d="M 436 173 L 439 173 L 439 213 L 436 213 M 436 799 L 439 799 L 439 373 L 436 373 M 436 223 L 439 223 L 439 263 L 436 263 M 436 313 L 439 313 L 439 273 L 436 273 M 436 363 L 439 363 L 439 323 L 436 323 M 439  105 L 434  99 L 435  98 L 440  104 M 435  98 L 441  93 L 440  92 L 434  97 M 434  99" data-x="386" data-y="-78" class="" style="transform: translate(386px, -78px);"></path></g><g _ngcontent-gpi-c268=""><circle _ngcontent-gpi-c268="" stroke="black" stroke-width="1" r="20" fill="white" fill-opacity="0.0" cy="118" cx="437" data-x="386" data-y="-78" class="" style="transform: translate(386px, -78px);"></circle></g><g _ngcontent-gpi-c268=""><text _ngcontent-gpi-c268="" x="797" y="85">UML Board</text></g></g><g _ngcontent-gpi-c268="" style=""><g _ngcontent-gpi-c268=""><path _ngcontent-gpi-c268="" d="M 788 97 L 791 97 L 791 137 L 788 137 M 788 722 L 791 722 L 791 297 L 788 297 M 788 147 L 791 147 L 791 187 L 788 187 M 788 237 L 791 237 L 791 197 L 788 197 M 788 287 L 791 287 L 791 247 L 788 247 M 811  63 L 768  63 L 768  62 L 811  62" data-x="272" data-y="-1" class="" style="transform: translate(272px, -1px);"></path></g><g _ngcontent-gpi-c268=""><circle _ngcontent-gpi-c268="" stroke="black" stroke-width="1" r="20" fill="white" fill-opacity="0.0" cy="42" cx="789" data-x="272" data-y="-1" class="" style="transform: translate(272px, -1px);"></circle></g><g _ngcontent-gpi-c268=""><text _ngcontent-gpi-c268="" x="1042" y="86">UML Component</text></g></g><g _ngcontent-gpi-c268="" style=""><g _ngcontent-gpi-c268=""><path _ngcontent-gpi-c268="" d="M 771 123 L 774 123 L 774 163 L 771 163 M 771 753 L 774 753 L 774 323 L 771 323 M 771 173 L 774 173 L 774 213 L 771 213 M 771 263 L 774 263 L 774 223 L 771 223 M 771 313 L 774 313 L 774 273 L 771 273" data-x="763" data-y="-31" class="" style="transform: translate(763px, -31px);"></path></g><g _ngcontent-gpi-c268=""><rect _ngcontent-gpi-c268="" width="150" height="60" stroke="black" stroke-width="1" fill="white" y="48" x="696" data-x="763" data-y="-31" class="" style="transform: translate(763px, -31px);"></rect></g><g _ngcontent-gpi-c268=""><text _ngcontent-gpi-c268="" x="701" y="83" data-x="763" data-y="-31" class="" style="transform: translate(763px, -31px);">Save Diagram</text></g></g><g _ngcontent-gpi-c268="" style=""><g _ngcontent-gpi-c268=""><path _ngcontent-gpi-c268="" d="M 864 68 L 867 68 L 867 108 L 864 108 M 864 695 L 867 695 L 867 268 L 864 268 M 864 118 L 867 118 L 867 158 L 864 158 M 864 208 L 867 208 L 867 168 L 864 168 M 864 258 L 867 258 L 867 218 L 864 218" data-x="-308" data-y="27" class="" style="transform: translate(-308px, 27px);"></path></g><g _ngcontent-gpi-c268=""><rect _ngcontent-gpi-c268="" width="150" height="60" stroke="black" stroke-width="1" fill="white" y="-7" x="789" data-x="-308" data-y="27" class="" style="transform: translate(-308px, 27px);"></rect></g><g _ngcontent-gpi-c268=""><text _ngcontent-gpi-c268="" x="940" y="90" data-x="-454" data-y="-35" class="" style="transform: translate(-454px, -35px);">Load Diagram</text></g></g><g _ngcontent-gpi-c268="" style=""><rect _ngcontent-gpi-c268="" width="12" height="40" stroke="black" stroke-width="1" fill="white" y="222" x="150" data-x="-64" data-y="-86" style="width: 12px; height: 560px; transform: translate(-64px, -86px);" class="getting-dragged"></rect></g><g _ngcontent-gpi-c268="" data-x="-30" data-y="-5" class="" style="transform: translate(-30px, -5px);"><path _ngcontent-gpi-c268="" d="M 128 151 L 128 161 L 291 161 L 291 151 M 291 174 L 291 138 L 314 156"></path></g><g _ngcontent-gpi-c268="" style=""><rect _ngcontent-gpi-c268="" width="12" height="40" stroke="black" stroke-width="1" fill="white" y="227" x="367" data-x="-88" data-y="-84" class="getting-dragged" style="transform: translate(-88px, -84px); width: 12px; height: 182px;"></rect></g><g _ngcontent-gpi-c268="" style=""><rect _ngcontent-gpi-c268="" width="12" height="40" stroke="black" stroke-width="1" fill="white" y="201" x="616" data-x="-64" data-y="-44" class="getting-dragged" style="transform: translate(-64px, -44px); width: 12px; height: 97px;"></rect></g><g _ngcontent-gpi-c268="" data-x="-25" data-y="-41" class="" style="transform: translate(-25px, -41px);"><path _ngcontent-gpi-c268="" d="M 315 199 L 315 209 L 553 209 L 553 199 M 553 222 L 553 186 L 576 204"></path></g><g _ngcontent-gpi-c268="" style=""><rect _ngcontent-gpi-c268="" width="12" height="40" stroke="black" stroke-width="1" fill="white" y="252" x="881" data-x="-64" data-y="-26" class="getting-dragged" style="transform: translate(-64px, -26px); width: 12px; height: 415px;"></rect></g><g _ngcontent-gpi-c268="" data-x="-30" data-y="15" class="" style="transform: translate(-30px, 15px);"><path _ngcontent-gpi-c268="" d="M 593 225 L 593 235 L 824 235 L 824 225 M 824 248 L 824 212 L 847 230"></path></g><g _ngcontent-gpi-c268="" style=""><rect _ngcontent-gpi-c268="" width="12" height="40" stroke="black" stroke-width="1" fill="white" y="278" x="1067" data-x="-12" data-y="-22" class="getting-dragged" style="transform: translate(-12px, -22px); width: 12px; height: 119px;"></rect></g><g _ngcontent-gpi-c268="" style="transform: translate(-251px, -319px);" data-x="-251" data-y="-319" class=""><path _ngcontent-gpi-c268="" d="M 1078 582 L 1078 592 L 1282 592 L 1282 582 M 1282 605 L 1282 569 L 1305 587"></path></g><g _ngcontent-gpi-c268=""><path _ngcontent-gpi-c268="" d="M 1300 357 L 1300 367 L 1231 367 L 1231 357 M 1226 357 L 1226 367 L 1214 367 L 1214 357 M 1209 357 L 1209 367 L 1197 367 L 1197 357 M 1192 357 L 1192 367 L 1180 367 L 1180 357 M 1175 357 L 1175 367 L 1101 367 L 1101 357 M 1096 344 L 1096 380 L 1078 362 M 1096 380 L 1096 344 L 1073 362" style="transform: translate(-246px, 6px);" data-x="-246" data-y="6" class=""></path></g><g _ngcontent-gpi-c268="" style=""><rect _ngcontent-gpi-c268="" width="12" height="40" stroke="black" stroke-width="1" fill="white" y="320" x="1451" data-x="79" data-y="260" style="width: 12px; height: 94px; transform: translate(79px, 260px);" class="getting-dragged"></rect></g><g _ngcontent-gpi-c268="" style="transform: translate(-27px, 10px);" data-x="-27" data-y="10" class=""><text _ngcontent-gpi-c268="" x="148" y="128">Select diagram type</text></g><g _ngcontent-gpi-c268="" style="transform: translate(-25px, -15px);" data-x="-25" data-y="-15" class=""><text _ngcontent-gpi-c268="" x="404" y="164">Load diagram</text></g><g _ngcontent-gpi-c268="" data-x="-42" data-y="45" class="" style="transform: translate(-42px, 45px);"><path _ngcontent-gpi-c268="" d="M 333 268 L 333 278 L 836 278 L 836 268 M 836 291 L 836 255 L 859 273"></path></g><g _ngcontent-gpi-c268="" style="transform: translate(-18px, 15px);" data-x="-18" data-y="15" class=""><text _ngcontent-gpi-c268="" x="392" y="291">Create new diagram</text></g><g _ngcontent-gpi-c268="" style="transform: translate(-3px, 69px);" data-x="-3" data-y="69" class=""><text _ngcontent-gpi-c268="" x="617" y="165">Create loaded diagram</text></g><g _ngcontent-gpi-c268="" style="transform: translate(-315px, 66px);" data-x="-315" data-y="66" class=""><text _ngcontent-gpi-c268="" x="1190" y="186">Add UML element</text></g><g _ngcontent-gpi-c268="" style="transform: translate(-327px, 66px);" data-x="-327" data-y="66" class=""><text _ngcontent-gpi-c268="" x="1204" y="285">Draw UML element</text></g><g _ngcontent-gpi-c268="" style="transform: translate(-326px, 144px);" data-x="-326" data-y="144" class=""><text _ngcontent-gpi-c268="" x="1217" y="438">Save diagram</text></g><g _ngcontent-gpi-c268="" style=""><g _ngcontent-gpi-c268=""><path _ngcontent-gpi-c268="" d="M 1263 103 L 1266 103 L 1266 143 L 1263 143 M 1263 729 L 1266 729 L 1266 303 L 1263 303 M 1263 153 L 1266 153 L 1266 193 L 1263 193 M 1263 243 L 1266 243 L 1266 203 L 1263 203 M 1263 293 L 1266 293 L 1266 253 L 1263 253 M 1237  50 L 1242  50 L 1242  49 L 1237  49 M 1237  37 L 1236  37 L 1236  62 L 1237  62" data-x="46" data-y="-7" class="" style="transform: translate(46px, -7px);"></path></g><g _ngcontent-gpi-c268=""><circle _ngcontent-gpi-c268="" stroke="black" stroke-width="1" r="20" fill="white" fill-opacity="0.0" cy="48" cx="1264" data-x="46" data-y="-7" class="" style="transform: translate(46px, -7px);"></circle></g><g _ngcontent-gpi-c268=""><text _ngcontent-gpi-c268="" x="1268" y="86" data-x="16" data-y="0" class="" style="transform: translate(16px, 0px);">Local storage</text></g></g><g _ngcontent-gpi-c268="" style=""><rect _ngcontent-gpi-c268="" width="12" height="40" stroke="black" stroke-width="1" fill="white" y="179" x="1379" data-x="-75" data-y="-63" class="getting-dragged" style="transform: translate(-75px, -63px); width: 12px; height: 525px;"></rect></g><g _ngcontent-gpi-c268="" style="transform: translate(-493px, 209px);" data-x="-493" data-y="209" class=""><text _ngcontent-gpi-c268="" x="1433" y="212">Save all elements</text></g><g _ngcontent-gpi-c268=""><path _ngcontent-gpi-c268="" d="M 924 569 L 924 579 L 1603 579 L 1603 569 M 1603 556 L 1603 592 L 1621 574 M 1603 592 L 1603 556 L 1626 574" data-x="-94" data-y="18" class="" style="transform: translate(-94px, 18px);"></path></g><g _ngcontent-gpi-c268=""><path _ngcontent-gpi-c268="" d="M 1467 323 L 1467 333 L 1919 333 L 1919 323 M 1919 310 L 1919 346 L 1937 328 M 1919 346 L 1919 310 L 1942 328" data-x="-637" data-y="131" class="" style="transform: translate(-637px, 131px);"></path></g><g _ngcontent-gpi-c268="" data-x="-38" data-y="31" class="" style="transform: translate(-38px, 31px);"><path _ngcontent-gpi-c268="" d="M 1580 606 L 1604 606 L 1604 603 L 1580 603 M 1607 606 L 1604 606 L 1604 575 L 1607 575 M 1607 575 L 1597 575 L 1597 572 L 1607 572 M 1586 574 L 1597 564 L 1597 583"></path></g><g _ngcontent-gpi-c268="" style=""><rect _ngcontent-gpi-c268="" width="12" height="40" stroke="black" stroke-width="1" fill="white" y="300" x="1577" data-x="-40" data-y="291" class="getting-dragged" style="transform: translate(-40px, 291px);"></rect></g><g _ngcontent-gpi-c268="" style="transform: translate(-42px, 28px);" data-x="-42" data-y="28" class=""><text _ngcontent-gpi-c268="" x="1603" y="565">Store diagram in data base</text></g><g _ngcontent-gpi-c268=""><path _ngcontent-gpi-c268="" d="M 1473 688 L 1473 698 L 1460 698 L 1460 688 M 1455 688 L 1455 698 L 1443 698 L 1443 688 M 1438 688 L 1438 698 L 1426 698 L 1426 688 M 1421 688 L 1421 698 L 1409 698 L 1409 688 M 1404 688 L 1404 698 L 68 698 L 68 688 M 63 675 L 63 711 L 45 693 M 63 711 L 63 675 L 40 693" style="transform: translate(57px, -25px);" data-x="57" data-y="-25" class=""></path></g><g _ngcontent-gpi-c268="" style="transform: translate(-39px, 169px);" data-x="-39" data-y="169" class=""><text _ngcontent-gpi-c268="" x="1395" y="483">Download as image</text></g><g _ngcontent-gpi-c268=""><path _ngcontent-gpi-c268="" d="M 1281 172 L 1281 182 L 636 182 L 636 172 M 631 172 L 631 182 L 619 182 L 619 172 M 614 172 L 614 182 L 602 182 L 602 172 M 597 172 L 597 182 L 585 182 L 585 172 M 580 172 L 580 182 L 568 182 L 568 172 M 563 159 L 563 195 L 545 177 M 563 195 L 563 159 L 540 177" data-x="24" data-y="0" class="" style="transform: translate(24px, 0px);"></path></g><g _ngcontent-gpi-c268="" style="transform: translate(-99px, 88px);" data-x="-99" data-y="88" class=""><text _ngcontent-gpi-c268="" x="966" y="79">Return saved diagram</text></g><g _ngcontent-gpi-c268="" style=""><g _ngcontent-gpi-c268=""><path _ngcontent-gpi-c268="" d=" M 1658  268 L 1659  268 L 1659  284 L 1658  284 M 1658  284 L 1637  305 L 1637  306 L 1659  284 M 1637  305 L 1578  305 L 1578  306 L 1637  306" data-x="-228" data-y="278" class="" style="transform: translate(-228px, 278px);"></path></g><g _ngcontent-gpi-c268=""><rect _ngcontent-gpi-c268="" width="404px" height="164px" stroke="black" stroke-width="1" fill="white" fill-opacity="0.0" y="268" x="1577" data-x="-228" data-y="278" class="" style="transform: translate(-228px, 278px);"></rect></g><g _ngcontent-gpi-c268=""><text _ngcontent-gpi-c268="" x="1588" y="288" data-x="-228" data-y="278" class="" style="transform: translate(-228px, 278px);">opt</text></g></g></g></svg>