<svg _ngcontent-bos-c109="" xmlns="http://www.w3.org/2000/svg" viewBox="305 15 828 834"><g _ngcontent-bos-c109=""><g _ngcontent-lpv-c268="" style=""><rect _ngcontent-lpv-c268="" width="300" height="500" stroke="black" stroke-width="1" fill="white" fill-opacity="0.0" y="177" x="709" data-x="-187" data-y="-162" class="getting-dragged" style="transform: translate(-187px, -162px); width: 601px; height: 824px;"></rect></g><g _ngcontent-lpv-c268="" style="transform: translate(46px, 134px);" data-x="46" data-y="134" class=""><g _ngcontent-lpv-c268=""><path _ngcontent-lpv-c268="" d=" M 267  273 L 275  250 L 276  251 L 268  273 M 286  273 L 277  251 L 278  250 L 287  273 M 276  250 L 277  250 L 277  223 L 276  223 M 268  229 L 268  230 L 285  230 L 285  229"></path></g><g _ngcontent-lpv-c268=""><circle _ngcontent-lpv-c268="" stroke="black" stroke-width="1" r="4" cy="218" cx="276"></circle></g><g _ngcontent-lpv-c268=""><text _ngcontent-lpv-c268="" x="259" y="293">Diagram creator</text></g></g><g _ngcontent-lpv-c268="" data-x="48" data-y="73" class="" style="transform: translate(48px, 73px);"><g _ngcontent-lpv-c268=""><ellipse _ngcontent-lpv-c268="" rx="100" ry="50" stroke="black" stroke-width="1" fill="white" fill-opacity="1.0" cy="185" cx="666"></ellipse></g><g _ngcontent-lpv-c268=""><text _ngcontent-lpv-c268="" x="596" y="180">Create UML diagram</text></g></g><g _ngcontent-lpv-c268="" style="transform: translate(-38px, 14px);" data-x="-38" data-y="14" class=""><g _ngcontent-lpv-c268=""><ellipse _ngcontent-lpv-c268="" rx="100" ry="50" stroke="black" stroke-width="1" fill="white" fill-opacity="1.0" cy="132" cx="983"></ellipse></g><g _ngcontent-lpv-c268=""><text _ngcontent-lpv-c268="" x="913" y="127">Select type of diagram</text></g></g><g _ngcontent-lpv-c268="" data-x="161" data-y="19" class="" style="transform: translate(161px, 19px);"><g _ngcontent-lpv-c268=""><ellipse _ngcontent-lpv-c268="" rx="100" ry="50" stroke="black" stroke-width="1" fill="white" fill-opacity="1.0" cy="342" cx="799"></ellipse></g><g _ngcontent-lpv-c268=""><text _ngcontent-lpv-c268="" x="729" y="337">Load diagram</text></g></g><g _ngcontent-lpv-c268="" data-x="166" data-y="65" class="" style="transform: translate(166px, 65px);"><g _ngcontent-lpv-c268=""><ellipse _ngcontent-lpv-c268="" rx="100" ry="50" stroke="black" stroke-width="1" fill="white" fill-opacity="1.0" cy="463" cx="667"></ellipse></g><g _ngcontent-lpv-c268=""><text _ngcontent-lpv-c268="" x="597" y="458">Save diagram</text></g></g><g _ngcontent-lpv-c268="" data-x="178" data-y="78" class="" style="transform: translate(178px, 78px);"><g _ngcontent-lpv-c268=""><ellipse _ngcontent-lpv-c268="" rx="100" ry="50" stroke="black" stroke-width="1" fill="white" fill-opacity="1.0" cy="596" cx="656"></ellipse></g><g _ngcontent-lpv-c268=""><text _ngcontent-lpv-c268="" x="586" y="591">Download diagram</text><text _ngcontent-lpv-c268="" x="586" y="611">as image</text></g></g><g _ngcontent-wcw-c268=""><path _ngcontent-wcw-c268="" d="M 852 152 L 858 158 L 852 164 L 846 158 M 816 188 L 822 194 L 815 200 L 809 194 M 825 179 L 831 185 L 825 191 L 819 185 M 834 170 L 840 176 L 834 182 L 828 176 M 843 161 L 849 167 L 843 173 L 837 167 M 819 211 L 797 189 L 793 213 M 799 192 L 816 209 L 798 208" data-x="7" data-y="19" class="" style="transform: translate(7px, 19px);"></path></g><g _ngcontent-wcw-c268="" style="transform: translate(104px, 61px);" data-x="104" data-y="61" class=""><text _ngcontent-wcw-c268="" x="691" y="123">extend</text></g><g _ngcontent-wcw-c268=""><path _ngcontent-wcw-c268="" d=" M 843  289 L 837  294 L 843  300 L 849  295 M 879  325 L 873  330 L 879  336 L 885  331 M 870  316 L 864  321 L 870  327 L 876  322 M 861  307 L 855  312 L 861  318 L 867  313 M 852  298 L 846  303 L 852  309 L 858  304 M 879  348 L 901  350 L 897  330 M 906  354 L 875  349 L 898  326" style="transform: translate(-33px, -16px);" data-x="-33" data-y="-16" class=""></path></g><g _ngcontent-wcw-c268="" style="transform: translate(-120px, 16px);" data-x="-120" data-y="16" class=""><text _ngcontent-wcw-c268="" x="949" y="273">include</text></g><g _ngcontent-wcw-c268=""><path _ngcontent-wcw-c268="" d="M 410 344 L 405 340 L 695 232 L 699 236" data-x="-77" data-y="40" class="" style="transform: translate(-77px, 40px);"></path></g><g _ngcontent-wcw-c268=""><path _ngcontent-wcw-c268="" d="M 419 458 L 413 464 L 727 531 L 732 526 M 718 540 L 741 517 L 742 540 M 741 517 L 718 540 L 746 544" data-x="-8" data-y="-32" class="" style="transform: translate(-8px, -32px);"></path></g><g _ngcontent-wcw-c268=""><path _ngcontent-wcw-c268="" d="M 395 468 L 389 474 L 718 673 L 723 668 M 709 682 L 732 659 L 733 682 M 732 659 L 709 682 L 737 686" data-x="8" data-y="-33" class="" style="transform: translate(8px, -33px);"></path></g></g></svg>